<svg width="150" height="150" viewBox="0 0 150 150" fill="none" xmlns="http://www.w3.org/2000/svg">
<rect y="10" width="10" height="20" fill="#009689"/>
<rect x="120" width="10" height="20" fill="#009689"/>
<rect x="20" width="10" height="20" fill="#009689"/>
<rect x="40" y="20" width="10" height="20" fill="#FF6900"/>
<rect x="60" y="30" width="10" height="20" fill="#FF6900"/>
<rect x="80" y="20" width="10" height="20" fill="#FF6900"/>
<rect x="100" y="10" width="10" height="20" fill="#FF6900"/>
<rect x="60" y="120" width="10" height="20" fill="#FF6900"/>
<rect x="40" y="110" width="10" height="20" fill="#FF6900"/>
<rect x="80" y="110" width="10" height="20" fill="#FF6900"/>
<rect x="100" y="100" width="10" height="20" fill="#FF6900"/>
<rect x="140" y="10" width="10" height="20" fill="#009689"/>
<rect y="40" width="10" height="20" fill="#009689"/>
<rect x="120" y="30" width="10" height="20" fill="#009689"/>
<rect x="20" y="30" width="10" height="20" fill="#009689"/>
<rect x="140" y="40" width="10" height="20" fill="#009689"/>
<rect y="70" width="10" height="20" fill="#009689"/>
<rect x="80" y="80" width="10" height="20" fill="#009689"/>
<rect x="80" y="50" width="10" height="20" fill="#009689"/>
<rect x="120" y="60" width="10" height="20" fill="#009689"/>
<rect x="40" y="80" width="10" height="20" fill="#009689"/>
<rect x="40" y="50" width="10" height="20" fill="#009689"/>
<rect x="20" y="60" width="10" height="20" fill="#009689"/>
<rect x="100" y="70" width="10" height="20" fill="#009689"/>
<rect x="100" y="40" width="10" height="20" fill="#009689"/>
<rect x="140" y="70" width="10" height="20" fill="#009689"/>
<rect x="60" y="90" width="10" height="20" fill="#009689"/>
<rect x="60" y="60" width="10" height="20" fill="#009689"/>
<rect y="100" width="10" height="20" fill="#009689"/>
<rect x="120" y="90" width="10" height="20" fill="#009689"/>
<rect x="20" y="90" width="10" height="20" fill="#009689"/>
<rect x="140" y="100" width="10" height="20" fill="#009689"/>
<rect y="130" width="10" height="20" fill="#009689"/>
<rect x="120" y="120" width="10" height="20" fill="#009689"/>
<rect x="20" y="120" width="10" height="20" fill="#009689"/>
<rect x="140" y="130" width="10" height="20" fill="#009689"/>
</svg>
